<svg width="24" height="36" viewBox="0 0 24 36" fill="none" xmlns="http://www.w3.org/2000/svg">
<path d="M11.6505 26.7014C10.878 26.7014 10.1372 26.3498 9.59095 25.7238C9.04473 25.0979 8.73786 24.249 8.73786 23.3638C8.73786 21.5113 10.034 20.0261 11.6505 20.0261C12.423 20.0261 13.1638 20.3777 13.71 21.0037C14.2562 21.6296 14.5631 22.4785 14.5631 23.3638C14.5631 24.249 14.2562 25.0979 13.71 25.7238C13.1638 26.3498 12.423 26.7014 11.6505 26.7014ZM20.3884 31.708V15.0196H2.91262V31.708H20.3884ZM20.3884 11.6819C21.1608 11.6819 21.9017 12.0335 22.4479 12.6595C22.9941 13.2854 23.301 14.1343 23.301 15.0196V31.708C23.301 32.5932 22.9941 33.4421 22.4479 34.068C21.9017 34.694 21.1608 35.0456 20.3884 35.0456H2.91262C2.14015 35.0456 1.39931 34.694 0.853087 34.068C0.306864 33.4421 0 32.5932 0 31.708V15.0196C0 13.1671 1.29612 11.6819 2.91262 11.6819H4.36893V8.3442C4.36893 6.13118 5.13609 4.0088 6.50165 2.44396C7.86721 0.879118 9.7193 0 11.6505 0C12.6067 0 13.5536 0.215829 14.437 0.635164C15.3205 1.0545 16.1232 1.66913 16.7993 2.44396C17.4755 3.21879 18.0118 4.13865 18.3778 5.15101C18.7437 6.16338 18.932 7.24842 18.932 8.3442V11.6819H20.3884ZM11.6505 3.33768C10.4918 3.33768 9.38052 3.86515 8.56118 4.80405C7.74185 5.74296 7.28155 7.01639 7.28155 8.3442V11.6819H16.0194V8.3442C16.0194 7.01639 15.5591 5.74296 14.7398 4.80405C13.9205 3.86515 12.8092 3.33768 11.6505 3.33768Z" fill="black"/>
</svg>
