<svg width="24" height="27" viewBox="0 0 24 27" fill="none" xmlns="http://www.w3.org/2000/svg">
<path d="M11.6505 0C13.1954 0 14.6771 0.703294 15.7696 1.95517C16.862 3.20704 17.4757 4.90494 17.4757 6.67536C17.4757 8.44577 16.862 10.1437 15.7696 11.3955C14.6771 12.6474 13.1954 13.3507 11.6505 13.3507C10.1055 13.3507 8.62386 12.6474 7.53142 11.3955C6.43897 10.1437 5.82524 8.44577 5.82524 6.67536C5.82524 4.90494 6.43897 3.20704 7.53142 1.95517C8.62386 0.703294 10.1055 0 11.6505 0ZM11.6505 16.6884C18.0874 16.6884 23.301 19.6756 23.301 23.3638V26.7014H0V23.3638C0 19.6756 5.21359 16.6884 11.6505 16.6884Z" fill="#212427"/>
</svg>
