<svg width="16" height="5" viewBox="0 0 16 5" fill="none" xmlns="http://www.w3.org/2000/svg">
<path d="M2.07444 4.14007C2.94398 4.14007 3.64888 3.32522 3.64888 2.32004C3.64888 1.31486 2.94398 0.5 2.07444 0.5C1.2049 0.5 0.5 1.31486 0.5 2.32004C0.5 3.32522 1.2049 4.14007 2.07444 4.14007Z" stroke="#A1A3AB"/>
<path d="M7.58494 4.14007C8.45448 4.14007 9.15938 3.32522 9.15938 2.32004C9.15938 1.31486 8.45448 0.5 7.58494 0.5C6.7154 0.5 6.0105 1.31486 6.0105 2.32004C6.0105 3.32522 6.7154 4.14007 7.58494 4.14007Z" stroke="#A1A3AB"/>
<path d="M13.0956 4.14007C13.9651 4.14007 14.67 3.32522 14.67 2.32004C14.67 1.31486 13.9651 0.5 13.0956 0.5C12.226 0.5 11.5211 1.31486 11.5211 2.32004C11.5211 3.32522 12.226 4.14007 13.0956 4.14007Z" stroke="#A1A3AB"/>
</svg>
